<svg id="Calque_1" data-name="Calque 1" xmlns="http://www.w3.org/2000/svg" viewBox="0 0 170.08 100.16"><defs><style>.cls-1{fill:#fff;}</style></defs><title>LOGO-BNU Blanc</title><path class="cls-1" d="M37.84,103.41a3.48,3.48,0,0,1-2.1.52,3.42,3.42,0,0,1-2-.49A1.58,1.58,0,0,1,33,102.2v-.11H30.24v.12a3.79,3.79,0,0,0,.43,1.7,4.24,4.24,0,0,0,1.13,1.34,5.2,5.2,0,0,0,1.71.87,7.4,7.4,0,0,0,2.24.31,7.55,7.55,0,0,0,2.25-.32,5.76,5.76,0,0,0,1.75-.89,3.79,3.79,0,0,0,1.52-3.1,3.43,3.43,0,0,0-.61-2.18,3.88,3.88,0,0,0-1.54-1.14,6.89,6.89,0,0,0-2-.49c-.68-.08-1.33-.17-1.92-.27a5.33,5.33,0,0,1-1.46-.41.86.86,0,0,1-.53-.86,1.55,1.55,0,0,1,.64-1.28,3.09,3.09,0,0,1,1.88-.5,3,3,0,0,1,1.78.47,1.51,1.51,0,0,1,.66,1.16v.11H41v-.12A4.06,4.06,0,0,0,40.55,95a3.94,3.94,0,0,0-1-1.3,5.29,5.29,0,0,0-1.63-.88,6.76,6.76,0,0,0-2.13-.32,7,7,0,0,0-2.15.32,5.12,5.12,0,0,0-1.65.9,3.72,3.72,0,0,0-1.06,1.35,4,4,0,0,0-.37,1.71,3.36,3.36,0,0,0,.62,2.17,3.83,3.83,0,0,0,1.53,1.13,7.63,7.63,0,0,0,2,.51l1.92.26a5.36,5.36,0,0,1,1.45.41.89.89,0,0,1,.53.87A1.52,1.52,0,0,1,37.84,103.41Z" transform="translate(-28.35 -11.83)"/><path class="cls-1" d="M46.06,88.38V101a6.5,6.5,0,0,0,.39,2.35,4.74,4.74,0,0,0,1.09,1.69,4.67,4.67,0,0,0,1.69,1,7.23,7.23,0,0,0,4.32,0,4.46,4.46,0,0,0,2.79-2.71,6.5,6.5,0,0,0,.39-2.35v-.4H54v.4a2.82,2.82,0,0,1-.72,2.18,2.69,2.69,0,0,1-1.91.66,2.64,2.64,0,0,1-1.89-.67,2.87,2.87,0,0,1-.7-2.17V95.36H56V92.83H48.8V88.38Z" transform="translate(-28.35 -11.83)"/><path class="cls-1" d="M72.91,98.58v-.25a7.45,7.45,0,0,0-.41-2.57,5,5,0,0,0-1.18-1.84,4.73,4.73,0,0,0-1.81-1.08,7.35,7.35,0,0,0-2.3-.35,7.45,7.45,0,0,0-2.33.35,4.73,4.73,0,0,0-1.81,1.08,5,5,0,0,0-1.18,1.82,7.39,7.39,0,0,0-.41,2.56v7.79h2.73V98.3A3.29,3.29,0,0,1,65,95.8,3.13,3.13,0,0,1,67.21,95a3.07,3.07,0,0,1,2.16.77,3.25,3.25,0,0,1,.83,2.49v.28Z" transform="translate(-28.35 -11.83)"/><path class="cls-1" d="M86.75,93a7.82,7.82,0,0,0-2.86-.51A7.65,7.65,0,0,0,81,93a6.83,6.83,0,0,0-2.25,1.44,6.52,6.52,0,0,0-1.47,2.22,7.28,7.28,0,0,0-.53,2.78,7.42,7.42,0,0,0,.57,3,6.57,6.57,0,0,0,1.5,2.18A6.33,6.33,0,0,0,81,106a6.79,6.79,0,0,0,2.49.46,5.89,5.89,0,0,0,3.19-.85,5,5,0,0,0,1.78-1.92v2.43H91V99.57a7.7,7.7,0,0,0-.53-2.89A6.49,6.49,0,0,0,89,94.44,6.39,6.39,0,0,0,86.75,93Zm1.2,8.25a3.82,3.82,0,0,1-.89,1.38,4,4,0,0,1-1.38.91,4.88,4.88,0,0,1-3.58,0,4.1,4.1,0,0,1-1.38-.91,3.8,3.8,0,0,1-.88-1.38,4.91,4.91,0,0,1-.31-1.79,5,5,0,0,1,.31-1.78,3.84,3.84,0,0,1,.88-1.39,4.1,4.1,0,0,1,1.38-.91,4.88,4.88,0,0,1,3.58,0,4,4,0,0,1,1.38.91A3.86,3.86,0,0,1,88,97.68a5.2,5.2,0,0,1,.31,1.78A5.13,5.13,0,0,1,88,101.25Z" transform="translate(-28.35 -11.83)"/><path class="cls-1" d="M103.34,103.41a3.49,3.49,0,0,1-2.11.52,3.44,3.44,0,0,1-2-.49,1.63,1.63,0,0,1-.73-1.24v-.11H95.74v.12a3.93,3.93,0,0,0,.44,1.7,4.34,4.34,0,0,0,1.12,1.34,5.3,5.3,0,0,0,1.71.87,7.46,7.46,0,0,0,2.25.31,7.55,7.55,0,0,0,2.25-.32,5.76,5.76,0,0,0,1.75-.89,4,4,0,0,0,1.13-1.36,3.87,3.87,0,0,0,.39-1.74,3.43,3.43,0,0,0-.62-2.18,3.78,3.78,0,0,0-1.53-1.14,7,7,0,0,0-2-.49q-1-.12-1.92-.27a5.55,5.55,0,0,1-1.46-.41.87.87,0,0,1-.52-.86,1.55,1.55,0,0,1,.64-1.28,3.05,3.05,0,0,1,1.88-.5,2.93,2.93,0,0,1,1.77.47,1.49,1.49,0,0,1,.67,1.16v.11h2.71v-.12A3.88,3.88,0,0,0,105,93.69a5.29,5.29,0,0,0-1.63-.88,7.32,7.32,0,0,0-4.28,0,5.29,5.29,0,0,0-1.66.9,3.83,3.83,0,0,0-1.06,1.35A4.1,4.1,0,0,0,96,96.77a3.36,3.36,0,0,0,.61,2.17,3.86,3.86,0,0,0,1.54,1.13,7.66,7.66,0,0,0,2,.51l1.93.26a5.36,5.36,0,0,1,1.45.41.89.89,0,0,1,.53.87A1.52,1.52,0,0,1,103.34,103.41Z" transform="translate(-28.35 -11.83)"/><path class="cls-1" d="M111.55,87.14V99.36a7.68,7.68,0,0,0,.53,2.9,6.25,6.25,0,0,0,3.67,3.66,8.25,8.25,0,0,0,5.74,0,7,7,0,0,0,2.27-1.45,6.48,6.48,0,0,0,1.47-2.21,8,8,0,0,0,0-5.77,6.51,6.51,0,0,0-1.5-2.19A6.39,6.39,0,0,0,121.55,93a6.94,6.94,0,0,0-2.47-.46,6.15,6.15,0,0,0-3,.7,5.09,5.09,0,0,0-1.82,1.65v-7.7Zm3,10.54a3.84,3.84,0,0,1,.88-1.39,4.25,4.25,0,0,1,1.38-.91,4.54,4.54,0,0,1,1.77-.34,4.75,4.75,0,0,1,1.79.34,4.25,4.25,0,0,1,1.38.91,3.84,3.84,0,0,1,.88,1.39,5,5,0,0,1,.31,1.78,4.91,4.91,0,0,1-.31,1.79,3.8,3.8,0,0,1-.88,1.38,4.1,4.1,0,0,1-1.38.91,4.53,4.53,0,0,1-1.79.34,4.37,4.37,0,0,1-1.77-.34,4.1,4.1,0,0,1-1.38-.91,3.8,3.8,0,0,1-.88-1.38,4.84,4.84,0,0,1-.31-1.79A5,5,0,0,1,114.6,97.68Z" transform="translate(-28.35 -11.83)"/><path class="cls-1" d="M137.08,92.49a7.61,7.61,0,0,0-2.88.53A6.83,6.83,0,0,0,132,94.46a6.55,6.55,0,0,0-1.48,2.22,7.72,7.72,0,0,0,0,5.57,6.51,6.51,0,0,0,1.48,2.21,6.86,6.86,0,0,0,2.25,1.45,8.18,8.18,0,0,0,5.74,0,7,7,0,0,0,2.27-1.45,6.44,6.44,0,0,0,1.47-2.21,7.58,7.58,0,0,0,0-5.57,6.52,6.52,0,0,0-1.47-2.22A6.82,6.82,0,0,0,139.94,93,7.62,7.62,0,0,0,137.08,92.49Zm4,5.19a5,5,0,0,1,.31,1.78,4.91,4.91,0,0,1-.31,1.79,3.8,3.8,0,0,1-.88,1.38,4.1,4.1,0,0,1-1.38.91,4.88,4.88,0,0,1-3.58,0,4.14,4.14,0,0,1-1.39-.91,3.93,3.93,0,0,1-.88-1.38,5.13,5.13,0,0,1-.31-1.79,5.2,5.2,0,0,1,.31-1.78,4,4,0,0,1,.88-1.39,4.14,4.14,0,0,1,1.39-.91,4.88,4.88,0,0,1,3.58,0,4.1,4.1,0,0,1,1.38.91A3.84,3.84,0,0,1,141.13,97.68Z" transform="translate(-28.35 -11.83)"/><path class="cls-1" d="M158.15,106a5.41,5.41,0,0,0,3.4-3.35,8.28,8.28,0,0,0,.47-2.9V92.83h-2.73v6.92a4.2,4.2,0,0,1-1,3.11,4.28,4.28,0,0,1-5.55,0,4.2,4.2,0,0,1-1-3.11V92.83h-2.73v6.92a8,8,0,0,0,.47,2.9,5.72,5.72,0,0,0,1.33,2.1A5.54,5.54,0,0,0,152.8,106a8.37,8.37,0,0,0,2.68.41A7.83,7.83,0,0,0,158.15,106Z" transform="translate(-28.35 -11.83)"/><path class="cls-1" d="M178.71,98.58v-.25a7.21,7.21,0,0,0-.42-2.57,4.9,4.9,0,0,0-1.18-1.84,4.76,4.76,0,0,0-1.8-1.08,7.86,7.86,0,0,0-4.64,0,4.73,4.73,0,0,0-1.81,1.08,5,5,0,0,0-1.17,1.82,7.16,7.16,0,0,0-.42,2.56v7.79H170V98.3a3.26,3.26,0,0,1,.82-2.5A3.1,3.1,0,0,1,173,95a3.07,3.07,0,0,1,2.16.77A3.21,3.21,0,0,1,176,98.3v.28Z" transform="translate(-28.35 -11.83)"/><path class="cls-1" d="M193.74,107.15a3.3,3.3,0,0,1-2.22,2.18,6.18,6.18,0,0,1-1.78.24,5.78,5.78,0,0,1-2.46-.5,2.91,2.91,0,0,1-1.47-1.59l0-.07H183l0,.15a5.61,5.61,0,0,0,2.49,3.37,8.05,8.05,0,0,0,4.21,1.06,9.24,9.24,0,0,0,2.73-.39,5.79,5.79,0,0,0,2.23-1.23,5.64,5.64,0,0,0,1.51-2.21,8.51,8.51,0,0,0,.55-3.24V99.57a7.73,7.73,0,0,0-.52-2.91,6.68,6.68,0,0,0-1.45-2.22A6.44,6.44,0,0,0,192.55,93a7.86,7.86,0,0,0-2.86-.51,7.61,7.61,0,0,0-2.88.53,6.83,6.83,0,0,0-2.25,1.44,6.55,6.55,0,0,0-1.48,2.22,7.28,7.28,0,0,0-.52,2.78,7.51,7.51,0,0,0,.56,3,6.29,6.29,0,0,0,3.65,3.44,7.07,7.07,0,0,0,2.49.45,5.94,5.94,0,0,0,3-.72,5.12,5.12,0,0,0,1.82-1.66V105A6.38,6.38,0,0,1,193.74,107.15Zm0-5.92a3.9,3.9,0,0,1-.88,1.34,4.16,4.16,0,0,1-1.38.87,5.13,5.13,0,0,1-1.79.31,5.05,5.05,0,0,1-1.79-.31,4.2,4.2,0,0,1-1.39-.87,3.9,3.9,0,0,1-.88-1.34,5,5,0,0,1-.31-1.77,5.2,5.2,0,0,1,.31-1.78,4,4,0,0,1,.88-1.39,4.14,4.14,0,0,1,1.39-.91,4.86,4.86,0,0,1,3.57,0,4,4,0,0,1,1.39.91,3.84,3.84,0,0,1,.88,1.39,5,5,0,0,1,.31,1.78A4.77,4.77,0,0,1,193.74,101.23Z" transform="translate(-28.35 -11.83)"/><path class="cls-1" d="M52.2,75.2c13.15,0,23.85-10.8,23.85-22.58,0-1.31-.16-3.85-.31-5.12C74.35,35.81,64,27,52.2,27c-7.24,0-13.73,3.7-18.11,8.81V11.83H28.35V48.16a70.3,70.3,0,0,0,.57,8.27A23.55,23.55,0,0,0,52.2,75.2Zm0-42.59c10,0,18.11,8.76,18.11,18.74a18.11,18.11,0,1,1-36.22,0C34.09,41.37,42.21,32.61,52.2,32.61Z" transform="translate(-28.35 -11.83)"/><path class="cls-1" d="M89,52.14V74h5.73V53.42c0-.43.17-4,.42-5.52a17.83,17.83,0,0,1,35.3.09c.14.88.41,4.38.41,5.43V74h5.73V52.14a43.25,43.25,0,0,0-.3-4.52,23.68,23.68,0,0,0-47-.12A41.54,41.54,0,0,0,89,52.14Z" transform="translate(-28.35 -11.83)"/><path class="cls-1" d="M174.63,75A23.9,23.9,0,0,0,198.1,54.42a41.52,41.52,0,0,0,.33-4.63V28.35H192.7V48.5c0,.43-.17,4-.43,5.52A17.82,17.82,0,0,1,157,53.93c-.15-.88-.42-4.38-.42-5.43V28.35h-5.72V49.78a43.08,43.08,0,0,0,.3,4.52A23.81,23.81,0,0,0,174.63,75Z" transform="translate(-28.35 -11.83)"/></svg>